#
#
#

mtllib balloon.mtl


#
#  Mesh Mesh
#
g  Mesh Mesh


#
#  Mesh Mesh_ Mesh_Mesh_Mesh__Mesh_128
#
usemtl  Mesh Mesh_ Mesh_Mesh_Mesh__Mesh_128

v 0.020578 0.282667 -0.002755
v 0.026055 0.281444 -0.004130
v 0.024484 0.288869 -0.004933
v 0.026148 0.287325 -0.008642
v 0.024464 0.281942 -0.012315
v 0.017983 0.281356 -0.006222
v 0.019889 0.288931 -0.009137
v 0.019309 0.282567 -0.011553
v 0.019782 0.288865 -0.006613
v 0.020027 0.289096 -0.006484
v 0.017935 0.281244 -0.006134
v 0.025554 0.290548 -0.007880
v 0.022886 0.290700 -0.010412
v 0.026757 0.282366 -0.008349
v 0.022637 0.281845 -0.003411
v 0.022483 0.288750 -0.007356
v 0.022583 0.282153 -0.011959
v 0.018470 0.282193 -0.008266
v 0.021490 0.281740 -0.003715
v 0.018579 0.281504 -0.010774
v 0.027489 0.281589 -0.008872
v 0.021178 0.290549 -0.004377
v 0.093186 0.377025 0.025634
v 0.090184 0.413207 0.043524
v 0.084500 0.381470 0.041438
v -0.045560 0.409605 0.040243
v -0.053460 0.438791 0.014306
v -0.056949 0.421437 0.014205
v -0.055996 0.412437 0.018890
v -0.047192 0.388961 -0.041432
v -0.049575 0.368801 -0.014242
v -0.060515 0.405394 -0.013684
v 0.068359 0.433235 0.059158
v 0.067642 0.392978 0.059640
v 0.092998 0.438654 0.033766
v 0.059250 0.465340 0.048288
v 0.076872 0.473603 0.015526
v 0.080956 0.472196 -0.008193
v 0.096302 0.454568 -0.001889
v 0.041614 0.490511 0.017371
v 0.039902 0.440699 0.068846
v 0.043726 0.411129 0.072131
v 0.105059 0.434088 -0.011644
v 0.092508 0.454358 -0.026886
v 0.095417 0.454723 -0.002196
v 0.081907 0.471172 -0.007987
v 0.054186 0.489533 -0.008496
v 0.071719 0.474383 -0.033564
v 0.046255 0.491955 -0.008635
v 0.093321 0.377574 0.025667
v 0.097988 0.367903 -0.009033
v 0.103982 0.407998 0.020373
v 0.104479 0.419015 0.016896
v 0.103661 0.429397 0.011996
v 0.040157 0.490458 -0.027725
v 0.009947 0.484142 0.035015
v 0.031681 0.472071 0.050875
v 0.036681 0.367646 0.064223
v 0.083206 0.356215 0.026637
v 0.061069 0.356506 0.048920
v 0.082607 0.356696 0.026216
v 0.078121 0.344607 0.021136
v 0.087904 0.363099 0.024192
v 0.080551 0.336835 0.002983
v 0.103936 0.398118 -0.024845
v 0.100617 0.424896 -0.034914
v 0.054249 0.474001 -0.049976
v 0.015823 0.493935 -0.008804
v 0.013739 0.494168 -0.008643
v -0.001724 0.491182 -0.003831
v 0.001800 0.452450 0.062753
v 0.008071 0.417318 0.073158
v 0.050486 0.316515 0.026860
v 0.073130 0.338311 0.022209
v 0.084926 0.441747 -0.051373
v 0.061645 0.448129 -0.067796
v 0.024610 0.484258 -0.044704
v -0.007758 0.486411 -0.026163
v -0.001290 0.490375 -0.004003
v -0.001044 0.370941 0.061949
v 0.035742 0.323458 0.039453
v 0.064800 0.324635 0.019069
v 0.069155 0.331019 0.019680
v 0.075606 0.330346 -0.015802
v 0.080883 0.413088 -0.062967
v 0.035543 0.456972 -0.071706
v -0.019744 0.477677 0.022172
v -0.028458 0.459198 0.039122
v -0.016344 0.412383 0.064628
v 0.014706 0.346801 0.054747
v 0.057057 0.315914 0.017251
v 0.057544 0.315365 0.017582
v 0.047174 0.298820 0.005845
v 0.073327 0.343876 -0.041565
v 0.084668 0.390835 -0.055218
v 0.005135 0.475430 -0.054678
v -0.035132 0.471482 -0.001160
v -0.038249 0.468337 -0.000812
v -0.028510 0.436765 0.052632
v -0.031558 0.377115 0.045796
v -0.006666 0.338587 0.043145
v 0.018455 0.308478 0.028353
v 0.046016 0.299682 0.005317
v 0.049504 0.300511 -0.014744
v 0.062986 0.370754 -0.066029
v 0.043321 0.423186 -0.081331
v 0.005032 0.453945 -0.071286
v -0.044808 0.438417 0.034127
v 0.031944 0.296891 0.013888
v 0.034653 0.302533 -0.033311
v 0.017993 0.408760 -0.083142
v 0.005144 0.430061 -0.079892
v -0.021622 0.451143 -0.060894
v -0.043377 0.456317 -0.028534
v -0.045370 0.458162 0.001064
v -0.048142 0.453185 0.002838
v -0.052468 0.445164 0.008280
v -0.058612 0.432136 -0.009613
v -0.050395 0.448486 0.005412
v -0.028211 0.339701 0.022956
v 0.012402 0.293526 0.006386
v 0.028157 0.290633 -0.001257
v 0.034181 0.292505 -0.000783
v 0.027976 0.291667 -0.001646
v 0.030087 0.291220 -0.012925
v 0.037841 0.331740 -0.056002
v 0.039896 0.377724 -0.076926
v -0.053455 0.438501 0.014244
v -0.057026 0.421414 0.014220
v -0.057038 0.411151 0.019586
v -0.051733 0.382328 0.017832
v -0.043294 0.358641 0.012101
v -0.003673 0.313682 0.023051
v -0.011249 0.305978 -0.009580
v 0.009957 0.293299 -0.014035
v 0.019693 0.290228 -0.005940
v -0.020130 0.407379 -0.071692
v -0.044319 0.429368 -0.048802
v 0.006129 0.356874 -0.069181
v 0.013226 0.306980 -0.038232
v 0.010221 0.293040 -0.014196
v -0.008280 0.312779 -0.029805
v -0.017798 0.365031 -0.061704
v -0.029435 0.358457 -0.047248
v -0.008994 0.306277 -0.009984
v -0.028248 0.327938 -0.000347
v -0.033705 0.344166 -0.027553
v -0.046908 0.365980 0.014828
v -0.026207 0.326657 -0.001163
v 0.022891 0.290601 -0.010448
v 0.023795 0.292188 -0.004507
v 0.025418 0.290416 -0.006916
v 0.019197 0.290268 -0.008002
v 0.019506 0.290396 -0.007754
v 0.087406 0.363289 0.023970
v 0.073130 0.338311 0.022209
v 0.078397 0.344450 0.021294
v 0.070384 0.332686 0.019724
v 0.020021 0.289157 -0.008358
v 0.019988 0.289067 -0.005896
v 0.026048 0.286318 -0.012274
v 0.023631 0.286498 -0.011463
v 0.024978 0.285367 -0.012019
v 0.025900 -0.017903 -0.012044
v 0.019575 0.288470 -0.008442
v 0.020919 0.288839 -0.009314
v 0.025114 0.288107 -0.009920
v 0.025439 0.288086 -0.006718
v 0.022197 0.288935 -0.009637
vn -0.307405 -0.008778 0.951538
vn 0.763529 0.454644 0.458608
vn 0.451351 0.060430 0.890298
vn 0.881875 0.104183 -0.459829
vn 0.299011 0.381581 -0.874636
vn -0.944491 0.308635 -0.112614
vn -0.539785 0.215033 -0.813875
vn -0.698855 0.182174 -0.691675
vn -0.972292 0.231109 -0.035177
vn -0.553526 -0.007113 0.832802
vn -0.737496 0.269535 0.619234
vn 0.957770 0.220226 -0.184873
vn 0.361424 -0.134556 -0.922642
vn -0.827636 -0.559986 0.037890
vn 0.004569 -0.495990 -0.868316
vn 0.023819 -0.998011 0.058368
vn 0.020020 -0.571900 0.820079
vn 0.851076 -0.524420 0.025546
vn 0.039365 0.965898 -0.255915
vn -0.739553 0.014716 -0.672938
vn 0.060741 0.996957 0.048858
vn -0.259652 -0.722874 0.640339
vn 0.833836 -0.239413 0.497393
vn 0.774996 -0.036423 0.630916
vn 0.730859 -0.301943 0.612108
vn -0.819513 0.012781 0.572918
vn -0.875166 0.252920 0.412450
vn -0.876776 0.156630 0.454676
vn -0.898464 -0.000493 0.439047
vn -0.816980 -0.232895 -0.527545
vn -0.915170 -0.380582 -0.132744
vn -0.991358 -0.085571 -0.099434
vn 0.526667 0.194960 0.827413
vn 0.510802 -0.175453 0.841604
vn 0.783231 0.365297 0.503098
vn 0.439131 0.611073 0.658599
vn 0.610417 0.749675 0.255693
vn 0.622845 0.779966 0.060975
vn 0.827651 0.519197 0.213140
vn 0.159931 0.936669 0.311567
vn 0.526666 0.194960 0.827413
vn 0.161711 0.335987 0.927881
vn 0.242959 -0.026861 0.969665
vn 0.975370 0.208764 -0.071208
vn 0.816255 0.505558 -0.279532
vn 0.872915 0.487045 -0.028394
vn 0.689669 0.710443 -0.140099
vn 0.363774 0.921347 -0.137071
vn 0.566323 0.724629 -0.392671
vn 0.338940 0.937606 0.077552
vn 0.920405 -0.326654 0.214830
vn 0.925746 -0.378033 -0.009236
vn 0.990023 -0.115810 0.080261
vn 0.912503 0.095150 0.397849
vn 0.972820 0.209305 0.099062
vn 0.154312 0.941621 -0.299230
vn -0.209963 0.835753 0.507378
vn 0.087675 0.697283 0.711414
vn 0.137181 -0.327878 0.934707
vn 0.632635 -0.449942 0.630337
vn 0.496664 -0.431918 0.752842
vn 0.748996 -0.472936 0.464044
vn 0.778995 -0.503457 0.373761
vn 0.845889 -0.437267 0.305402
vn 0.809899 -0.546948 0.211923
vn 0.940415 -0.148636 -0.305821
vn 0.889093 0.155269 -0.430587
vn 0.319483 0.735263 -0.597761
vn -0.069985 0.986757 -0.146330
vn -0.020180 0.986854 0.160351
vn -0.261905 0.943865 0.201306
vn -0.271349 0.445060 0.853400
vn 0.161710 0.335987 0.927881
vn -0.130019 0.004481 0.991501
vn 0.511034 -0.627242 0.587717
vn 0.768221 -0.543527 0.338252
vn 0.712645 0.371599 -0.595022
vn 0.474985 0.415279 -0.775843
vn 0.020062 0.848595 -0.528662
vn -0.360535 0.882739 -0.301309
vn -0.363386 0.929689 -0.060242
vn -0.294837 -0.302228 0.906493
vn 0.197710 -0.582401 0.788492
vn 0.589944 -0.536838 0.603134
vn 0.764881 -0.589161 0.260474
vn 0.796118 -0.588745 -0.139909
vn 0.667883 0.009181 -0.744210
vn 0.091622 0.527386 -0.844671
vn -0.504387 0.803083 0.317258
vn -0.614193 0.582516 0.532393
vn -0.484725 -0.009531 0.874615
vn -0.108444 -0.487689 0.866256
vn 0.590777 -0.672328 0.446046
vn 0.783139 -0.601843 0.156458
vn 0.694613 -0.713032 0.095383
vn 0.692045 -0.490394 -0.529705
vn 0.744494 -0.231986 -0.626029
vn 0.667882 0.009181 -0.744210
vn -0.224507 0.721374 -0.655146
vn -0.646738 0.754231 -0.113425
vn -0.706525 0.668047 0.233530
vn -0.603268 0.260884 0.753662
vn -0.271349 0.445061 0.853399
vn -0.651461 -0.310564 0.692206
vn -0.428980 -0.509879 0.745654
vn -0.137936 -0.683345 0.716947
vn 0.464193 -0.781504 0.416864
vn 0.557609 -0.803766 -0.207443
vn 0.475289 -0.282961 -0.833087
vn 0.744493 -0.231986 -0.626029
vn 0.243574 0.079771 -0.966596
vn -0.215205 0.470084 -0.855983
vn -0.800756 0.335886 0.495954
vn -0.603268 0.260885 0.753662
vn 0.208620 -0.834737 0.509600
vn 0.236385 -0.771596 -0.590561
vn -0.105315 -0.086408 -0.990678
vn -0.199117 0.212912 -0.956567
vn -0.528067 0.458735 -0.714638
vn -0.768186 0.561135 -0.308248
vn -0.855847 0.513291 -0.063709
vn -0.795751 0.569317 0.206539
vn -0.783418 0.536724 0.313342
vn -0.954211 0.291813 -0.065773
vn -0.908538 0.415387 0.044852
vn -0.733758 -0.521793 0.435122
vn -0.240393 -0.922498 0.302009
vn 0.010964 -0.980750 0.194960
vn 0.313563 -0.895601 0.315559
vn 0.361544 -0.930574 0.057602
vn 0.181910 -0.961891 -0.204145
vn 0.214779 -0.521086 -0.826038
vn 0.161525 -0.264386 -0.950794
vn -0.215204 0.470084 -0.855984
vn -0.949005 0.287968 0.128311
vn -0.988038 0.103489 0.114329
vn -0.988722 -0.090861 0.119052
vn -0.829763 -0.293242 0.474871
vn -0.821478 -0.465084 0.329955
vn -0.516824 -0.678937 0.521476
vn -0.635769 -0.730824 0.248384
vn -0.366852 -0.930081 0.019186
vn -0.110593 -0.984416 0.136726
vn -0.495758 -0.052878 -0.866850
vn -0.822434 0.161945 -0.545323
vn -0.231861 -0.392235 -0.890164
vn -0.190147 -0.686626 -0.701705
vn -0.215826 -0.881325 -0.420340
vn -0.597826 -0.624148 -0.503033
vn -0.545487 -0.356881 -0.758340
vn -0.688829 -0.424672 -0.587510
vn -0.686580 -0.683149 -0.248829
vn -0.831689 -0.540030 -0.129078
vn -0.809995 -0.480855 -0.335689
vn -0.597827 -0.624148 -0.503033
vn -0.942277 -0.325160 0.079911
vn -0.771944 -0.583788 0.251585
vn -0.428979 -0.509879 0.745654
vn -0.035223 -0.965041 -0.259723
vn 0.019648 -0.989656 0.142112
vn 0.169420 -0.985544 -0.000220
vn -0.100413 -0.954272 -0.281571
vn -0.251828 -0.965687 -0.063495
vn 0.794516 -0.349867 0.496324
vn 0.604570 -0.502296 0.618218
vn 0.688014 -0.513919 0.512371
vn 0.730825 -0.540767 0.416493
vn 0.139189 0.891146 -0.431839
vn 0.685009 -0.145949 0.713766
vn 0.462113 0.188832 0.866484
vn -0.211829 0.606913 -0.766019
vn 0.462114 0.188832 0.866483
vn 0.335424 -0.127097 0.933454
vn 0.231301 0.000623 0.972882
vn 0.157144 -0.723785 0.671894
vn -0.506042 -0.075095 0.859233
vn -0.170369 -0.985321 0.010840
vn -0.001200 0.959860 0.280476
vt 0.292720 0.312374
vt 0.283793 0.318468
vt 0.285002 0.293853
vt 0.273069 0.304136
vt 0.266566 0.316782
vt 0.248148 0.317956
vt 0.256905 0.294596
vt 0.257452 0.312731
vt 0.249021 0.294333
vt 0.299124 0.293394
vt 0.299720 0.318059
vt 0.274822 0.287172
vt 0.265208 0.287063
vt 0.286537 0.221123
vt 0.284065 0.240494
vt 0.277221 0.229297
vt 0.269526 0.217799
vt 0.265887 0.234530
vt 0.291850 0.321026
vt 0.256050 0.319154
vt 0.275252 0.318597
vt 0.291605 0.287080
vt 0.625989 0.055369
vt 0.708431 0.093642
vt 0.640865 0.093041
vt 0.673737 0.400925
vt 0.761322 0.468200
vt 0.706909 0.477858
vt 0.678976 0.465833
vt 0.196363 0.656383
vt 0.136649 0.700941
vt 0.136120 0.615106
vt 0.743110 0.153912
vt 0.663064 0.147430
vt 0.769461 0.081648
vt 0.809266 0.178155
vt 0.869705 0.113901
vt 0.917671 0.065847
vt 0.855771 0.024774
vt 0.903193 0.202404
vt 0.748150 0.214601
vt 0.694690 0.201324
vt 0.586604 0.580852
vt 0.528687 0.535138
vt 0.594828 0.514710
vt 0.545138 0.462973
vt 0.457186 0.404392
vt 0.479504 0.489974
vt 0.970223 0.181308
vt 0.668167 0.767523
vt 0.568142 0.745768
vt 0.669930 0.657326
vt 0.733301 0.022149
vt 0.650427 0.594173
vt 0.407955 0.436480
vt 0.859039 0.278751
vt 0.816332 0.231822
vt 0.607568 0.204671
vt 0.577628 0.076301
vt 0.583789 0.145329
vt 0.639958 0.847915
vt 0.605791 0.873864
vt 0.647441 0.817756
vt 0.549011 0.858489
vt 0.551202 0.671017
vt 0.529518 0.613221
vt 0.425005 0.507241
vt 0.342175 0.384502
vt 0.975472 0.284779
vt 0.953471 0.332268
vt 0.769112 0.286225
vt 0.699323 0.264816
vt 0.480765 0.153486
vt 0.596803 0.898396
vt 0.478085 0.576548
vt 0.427789 0.570468
vt 0.365699 0.473992
vt 0.289940 0.442448
vt 0.288405 0.385176
vt 0.608583 0.284196
vt 0.505930 0.194729
vt 0.490666 0.107240
vt 0.569381 0.920142
vt 0.492432 0.845031
vt 0.460845 0.630230
vt 0.380542 0.551857
vt 0.856816 0.363190
vt 0.796636 0.366178
vt 0.686707 0.316563
vt 0.558792 0.242926
vt 0.464708 0.125265
vt 0.514564 0.965149
vt 0.430755 0.981290
vt 0.456393 0.784559
vt 0.472271 0.681358
vt 0.325063 0.504964
vt 0.201619 0.430783
vt 0.872494 0.443236
vt 0.737153 0.353217
vt 0.605997 0.356788
vt 0.528984 0.292179
vt 0.458396 0.229850
vt 0.405247 0.152021
vt 0.405430 0.919211
vt 0.421915 0.711540
vt 0.386998 0.613007
vt 0.327611 0.552162
vt 0.746912 0.408533
vt 0.414470 0.193224
vt 0.354982 0.878908
vt 0.344089 0.634899
vt 0.326467 0.595510
vt 0.275949 0.548663
vt 0.208233 0.513807
vt 0.149116 0.466684
vt 0.821934 0.473596
vt 0.788783 0.475627
vt 0.139712 0.548952
vt 0.122082 0.488180
vt 0.503949 0.354774
vt 0.393571 0.242464
vt 0.369131 0.202155
vt 0.373443 0.183736
vt 0.342531 0.979474
vt 0.341988 0.948615
vt 0.367975 0.788187
vt 0.374463 0.695223
vt 0.087456 0.507188
vt 0.071935 0.556188
vt 0.055367 0.583974
vt 0.592459 0.441452
vt 0.528632 0.416829
vt 0.457473 0.283046
vt 0.377322 0.319091
vt 0.341796 0.260498
vt 0.357297 0.227330
vt 0.276738 0.627326
vt 0.220652 0.576597
vt 0.312973 0.727991
vt 0.300157 0.858531
vt 0.280521 0.941053
vt 0.236872 0.842945
vt 0.265352 0.707804
vt 0.226691 0.722862
vt 0.206979 0.895462
vt 0.142508 0.832870
vt 0.184835 0.762549
vt 0.063783 0.714855
vt 0.436525 0.371843
vt 0.321993 0.958713
vt 0.361188 0.214788
vt 0.331526 0.966936
vt 0.312260 0.962042
vt 0.353285 0.230744
vt 0.592934 0.064527
vt 0.528205 0.090349
vt 0.543919 0.077816
vt 0.511497 0.094010
vt 0.016263 0.055139
vt 0.020534 0.048129
vt 0.022798 0.075430
vt 0.015691 0.070860
vt 0.029671 0.075709
vt 0.020802 0.987064
vt 0.029679 0.054548
vt 0.025872 0.011762
vt 0.029621 0.022063
vt 0.026092 0.028561
vt 0.018660 0.013080
f 1/1/1 2/2/2 3/3/3
f 4/4/4 3/3/3 2/2/2
f 2/2/2 5/5/5 4/4/4
f 6/6/6 7/7/7 8/8/8
f 7/7/7 4/4/4 5/5/5
f 5/5/5 8/8/8 7/7/7
f 7/7/7 6/6/6 9/9/9
f 1/1/1 10/10/10 11/11/11
f 3/3/3 10/10/10 1/1/1
f 3/3/3 4/4/4 12/12/12
f 13/13/13 12/12/12 4/4/4
f 4/4/4 7/7/7 13/13/13
f 14/14/14 15/15/15 16/16/16
f 17/17/17 14/14/14 16/16/16
f 18/18/18 17/17/17 16/16/16
f 15/15/15 18/18/18 16/16/16
f 1/1/1 11/11/11 2/2/2
f 2/2/2 11/11/11 19/19/19
f 20/20/20 6/6/6 8/8/8
f 5/5/5 20/20/20 8/8/8
f 5/5/5 2/2/2 21/21/21
f 10/10/10 3/3/3 22/22/22
f 23/23/23 24/24/24 25/25/25
f 26/26/26 27/27/27 28/28/28
f 28/28/28 29/29/29 26/26/26
f 30/30/30 31/31/31 32/32/32
f 33/33/33 34/34/34 24/24/24
f 33/33/33 24/24/24 35/35/35
f 35/35/35 36/36/36 33/33/33
f 36/36/36 35/35/35 37/37/37
f 38/38/38 37/37/37 39/39/39
f 37/37/37 40/40/40 36/36/36
f 33/33/41 36/36/36 41/41/42
f 33/33/41 41/41/42 42/42/43
f 34/34/34 33/33/41 42/42/43
f 34/34/34 25/25/25 24/24/24
f 39/39/39 37/37/37 35/35/35
f 43/43/44 44/44/45 45/45/46
f 46/46/47 45/45/46 44/44/45
f 47/47/48 46/46/47 48/48/49
f 37/37/37 38/38/38 49/49/50
f 49/49/50 40/40/40 37/37/37
f 50/50/51 51/51/52 52/52/53
f 23/23/23 53/53/54 24/24/24
f 53/53/54 39/39/39 35/35/35
f 45/45/46 54/54/55 43/43/44
f 44/44/45 48/48/49 46/46/47
f 48/48/49 55/55/56 47/47/48
f 40/40/40 56/56/57 57/57/58
f 36/36/36 40/40/40 57/57/58
f 57/57/58 41/41/42 36/36/36
f 34/34/34 42/42/43 58/58/59
f 59/59/60 25/25/25 60/60/61
f 25/25/25 34/34/34 60/60/61
f 61/61/62 62/62/63 63/63/64
f 64/64/65 51/51/52 63/63/64
f 51/51/52 50/50/51 63/63/64
f 52/52/53 51/51/52 65/65/66
f 53/53/54 35/35/35 24/24/24
f 54/54/55 52/52/53 43/43/44
f 65/65/66 66/66/67 43/43/44
f 43/43/44 66/66/67 44/44/45
f 48/48/49 67/67/68 55/55/56
f 55/55/56 68/68/69 47/47/48
f 40/40/40 49/49/50 69/69/70
f 69/69/70 70/70/71 40/40/40
f 40/40/40 70/70/71 56/56/57
f 57/57/58 56/56/57 71/71/72
f 41/41/42 57/57/58 71/71/72
f 41/41/73 71/71/72 72/72/74
f 41/41/73 72/72/74 42/42/43
f 42/42/43 72/72/74 58/58/59
f 60/60/61 34/34/34 58/58/59
f 59/59/60 60/60/61 73/73/75
f 62/62/63 74/74/76 64/64/65
f 62/62/63 64/64/65 63/63/64
f 43/43/44 52/52/53 65/65/66
f 44/44/45 66/66/67 75/75/77
f 44/44/45 75/75/77 48/48/49
f 76/76/78 67/67/68 48/48/49
f 67/67/68 77/77/79 55/55/56
f 77/77/79 78/78/80 55/55/56
f 55/55/56 78/78/80 68/68/69
f 78/78/80 79/79/81 68/68/69
f 72/72/74 80/80/82 58/58/59
f 58/58/59 81/81/83 60/60/61
f 81/81/83 73/73/75 60/60/61
f 73/73/75 82/82/84 59/59/60
f 64/64/65 74/74/76 83/83/85
f 51/51/52 64/64/65 84/84/86
f 66/66/67 85/85/87 75/75/77
f 75/75/77 76/76/78 48/48/49
f 76/76/78 86/86/88 67/67/68
f 86/86/88 77/77/79 67/67/68
f 87/87/89 56/56/57 70/70/71
f 56/56/57 87/87/89 88/88/90
f 88/88/90 71/71/72 56/56/57
f 71/71/72 89/89/91 72/72/74
f 89/89/91 80/80/82 72/72/74
f 58/58/59 80/80/82 90/90/92
f 91/91/93 82/82/84 73/73/75
f 83/83/85 92/92/94 93/93/95
f 93/93/95 64/64/65 83/83/85
f 93/93/95 84/84/86 64/64/65
f 51/51/52 84/84/86 94/94/96
f 65/65/66 51/51/52 94/94/96
f 94/94/96 95/95/97 65/65/66
f 95/95/97 85/85/87 65/65/66
f 66/66/67 65/65/66 85/85/98
f 85/85/98 76/76/78 75/75/77
f 77/77/79 86/86/88 96/96/99
f 96/96/99 78/78/80 77/77/79
f 78/78/80 97/97/100 79/79/81
f 87/87/89 70/70/71 98/98/101
f 99/99/102 71/71/72 88/88/90
f 71/71/103 99/99/102 89/89/91
f 100/100/104 80/80/82 89/89/91
f 90/90/92 80/80/82 101/101/105
f 81/81/83 58/58/59 90/90/92
f 81/81/83 90/90/92 102/102/106
f 103/103/107 91/91/93 73/73/75
f 93/93/95 104/104/108 84/84/86
f 104/104/108 94/94/96 84/84/86
f 94/94/96 105/105/109 95/95/110
f 86/86/88 76/76/78 106/106/111
f 96/96/99 86/86/88 107/107/112
f 87/87/89 98/98/101 88/88/90
f 108/108/113 99/99/102 88/88/90
f 108/108/113 26/26/26 99/99/114
f 26/26/26 89/89/91 99/99/114
f 26/26/26 100/100/104 89/89/91
f 80/80/82 100/100/104 101/101/105
f 101/101/105 102/102/106 90/90/92
f 102/102/106 109/109/115 81/81/83
f 109/109/115 73/73/75 81/81/83
f 73/73/75 109/109/115 103/103/107
f 110/110/116 94/94/96 104/104/108
f 95/95/97 105/105/109 85/85/98
f 85/85/98 105/105/109 106/106/111
f 106/106/111 76/76/78 85/85/98
f 106/106/111 111/111/117 112/112/118
f 86/86/88 106/106/111 112/112/118
f 107/107/112 86/86/88 112/112/118
f 113/113/119 96/96/99 107/107/112
f 114/114/120 78/78/80 113/113/119
f 78/78/80 96/96/99 113/113/119
f 114/114/120 97/97/100 78/78/80
f 97/97/100 114/114/120 115/115/121
f 98/98/101 116/116/122 117/117/123
f 118/118/124 119/119/125 115/115/121
f 88/88/90 98/98/101 117/117/123
f 88/88/90 117/117/123 108/108/113
f 101/101/105 100/100/104 120/120/126
f 102/102/106 121/121/127 109/109/115
f 122/122/128 109/109/115 121/121/127
f 122/122/128 123/123/129 109/109/115
f 124/124/130 125/125/131 104/104/108
f 104/104/108 93/93/95 124/124/130
f 123/123/129 103/103/107 109/109/115
f 110/110/116 126/126/132 94/94/96
f 126/126/132 105/105/109 94/94/96
f 105/105/109 126/126/132 127/127/133
f 127/127/133 106/106/111 105/105/109
f 106/106/111 127/127/133 111/111/117
f 113/113/119 107/107/134 112/112/118
f 118/118/124 115/115/121 114/114/120
f 119/119/125 118/118/124 128/128/135
f 27/27/27 108/108/113 117/117/123
f 129/129/136 128/128/135 118/118/124
f 32/32/32 130/130/137 129/129/136
f 118/118/124 32/32/32 129/129/136
f 131/131/138 26/26/26 29/29/29
f 100/100/104 26/26/26 131/131/138
f 132/132/139 120/120/126 131/131/138
f 131/131/138 120/120/126 100/100/104
f 120/120/126 133/133/140 101/101/105
f 121/121/127 102/102/106 133/133/140
f 121/121/127 134/134/141 135/135/142
f 121/121/127 135/135/142 136/136/143
f 110/110/116 104/104/108 125/125/131
f 137/137/144 112/112/118 111/111/117
f 113/113/119 112/112/118 137/137/144
f 113/113/119 137/137/144 138/138/145
f 139/139/146 137/137/144 111/111/117
f 139/139/146 127/127/133 126/126/132
f 140/140/147 139/139/146 126/126/132
f 126/126/132 110/110/116 140/140/147
f 140/140/147 110/110/116 141/141/148
f 141/141/148 142/142/149 140/140/147
f 140/140/147 142/142/149 139/139/146
f 143/143/150 137/137/144 139/139/146
f 114/114/120 113/113/119 138/138/145
f 118/118/124 114/114/120 138/138/145
f 32/32/32 118/118/124 138/138/145
f 138/138/145 30/30/30 32/32/32
f 30/30/30 138/138/145 137/137/144
f 30/30/30 137/137/144 143/143/150
f 144/144/151 30/30/30 143/143/150
f 142/142/149 143/143/150 139/139/146
f 142/142/149 141/141/148 145/145/152
f 121/121/127 133/133/140 134/134/141
f 134/134/141 133/133/140 120/120/126
f 146/146/153 142/142/149 145/145/152
f 146/146/153 147/147/154 142/142/149
f 147/147/154 144/144/151 142/142/149
f 143/143/150 142/142/155 144/144/151
f 32/32/32 148/148/156 130/130/137
f 120/120/126 132/132/139 149/149/157
f 134/134/141 120/120/126 149/149/157
f 147/147/154 30/30/30 144/144/151
f 30/30/30 147/147/154 31/31/31
f 32/32/32 31/31/31 148/148/156
f 148/148/156 31/31/31 146/146/153
f 31/31/31 147/147/154 146/146/153
f 125/125/131 141/141/148 110/110/116
f 127/127/133 139/139/146 111/111/117
f 133/133/140 102/102/106 101/101/158
f 27/27/27 26/26/26 108/108/113
f 141/141/148 125/125/131 150/150/159
f 136/136/143 151/151/160 121/121/127
f 151/151/160 122/122/128 121/121/127
f 152/152/161 125/125/131 124/124/130
f 125/125/131 152/152/161 150/150/159
f 141/141/148 150/150/159 153/153/162
f 136/136/143 135/135/142 154/154/163
f 25/25/25 59/59/60 155/155/164
f 155/155/164 23/23/23 25/25/25
f 59/59/60 156/156/165 157/157/166
f 82/82/84 158/158/167 156/156/165
f 156/156/165 59/59/60 82/82/84
f 159/159/168 160/160/169 161/161/170
f 161/161/170 162/162/171 159/159/168
f 161/161/172 163/163/173 164/164/174
f 163/163/173 161/161/170 165/165/175
f 160/160/169 165/165/175 161/161/170
f 166/166/176 167/167/177 168/168/176
f 169/169/178 166/166/176 168/168/176
