#
#
#

mtllib Brett.mtl


#
#  Mesh Mesh
#
g  Mesh Mesh


#
#  Mesh Mesh_ Mesh_Material
#
usemtl  Mesh Mesh_ Mesh_Material

v 0.213883 1.847463 0.801924
v -0.213883 -0.004325 0.806367
v -0.213883 1.847463 0.801924
v -0.213883 1.847528 0.828982
v 0.213883 -0.004260 0.833425
v 0.213884 1.847527 0.828982
v 0.213883 -0.004325 0.806367
v 0.213883 1.847463 -0.843024
v -0.213883 -0.004325 -0.838581
v -0.213883 1.847463 -0.843024
v -0.213883 1.847528 -0.815966
v 0.213883 -0.004260 -0.811522
v 0.213884 1.847527 -0.815966
v 0.213883 -0.004325 -0.838581
v 0.188969 0.231796 0.823099
v -0.188969 0.230032 -0.827684
v -0.188969 0.231796 0.823099
v 0.188970 0.204737 0.823128
v -0.188970 0.202974 -0.827655
v 0.188969 0.202974 -0.827655
v 0.188969 0.230032 -0.827684
v -0.188969 0.204737 0.823128
v 0.188969 0.585223 0.813694
v -0.188969 0.583459 -0.837089
v -0.188969 0.585223 0.813695
v 0.188970 0.558164 0.813723
v -0.188970 0.556401 -0.837059
v 0.188969 0.556401 -0.837060
v 0.188969 0.583459 -0.837089
v -0.188969 0.558164 0.813723
v 0.188969 0.941287 0.823099
v -0.188969 0.939524 -0.827684
v -0.188969 0.941287 0.823099
v 0.188970 0.914229 0.823128
v -0.188970 0.912466 -0.827655
v 0.188969 0.912466 -0.827655
v 0.188969 0.939524 -0.827684
v -0.188969 0.914229 0.823128
v 0.188969 1.299989 0.823099
v -0.188969 1.298226 -0.827684
v -0.188969 1.299989 0.823099
v 0.188970 1.272931 0.823128
v -0.188970 1.271168 -0.827655
v 0.188969 1.271168 -0.827655
v 0.188969 1.298226 -0.827684
v -0.188969 1.272931 0.823128
v 0.188969 1.611216 0.823099
v -0.188969 1.609453 -0.827684
v -0.188969 1.611216 0.823099
v 0.188970 1.584158 0.823128
v -0.188970 1.582394 -0.827655
v 0.188969 1.582394 -0.827655
v 0.188969 1.609453 -0.827684
v -0.188969 1.584158 0.823128
v -0.213883 -0.004260 0.833425
v -0.213883 -0.004260 -0.811522
vn 0.333333 0.665064 -0.668266
vn -0.577351 -0.578734 -0.575962
vn -0.577348 0.575961 -0.578738
vn -0.577347 0.578731 0.575969
vn 0.333333 -0.665064 0.668265
vn 0.816496 0.409226 0.407268
vn 0.816492 -0.409225 -0.407279
vn 0.333333 0.665064 -0.668265
vn -0.577351 -0.578734 -0.575962
vn -0.577347 0.578731 0.575969
vn 0.333333 -0.665064 0.668265
vn 0.816496 0.409226 0.407268
vn 0.816492 -0.409225 -0.407279
vn 0.816496 0.409226 0.407268
vn 0.333330 0.667386 0.665948
vn -0.577347 0.576739 -0.577964
vn -0.577350 0.577967 0.576733
vn 0.666672 -0.666303 0.334048
vn -0.408253 -0.816927 -0.407381
vn 0.408248 -0.409121 -0.816060
vn 0.816492 0.407823 -0.408682
vn -0.666670 -0.332609 0.667025
vn 0.333334 0.667379 0.665953
vn -0.577352 0.576731 -0.577967
vn -0.577356 0.577954 0.576740
vn 0.666673 -0.666303 0.334048
vn -0.408249 -0.816932 -0.407375
vn 0.408244 -0.409135 -0.816055
vn 0.816492 0.407823 -0.408682
vn -0.666667 -0.332619 0.667023
vn 0.333334 0.667379 0.665953
vn 0.333330 0.667386 0.665948
vn -0.577347 0.576739 -0.577963
vn -0.577350 0.577967 0.576733
vn 0.666672 -0.666303 0.334048
vn -0.408253 -0.816927 -0.407381
vn 0.408248 -0.409121 -0.816060
vn 0.816492 0.407824 -0.408682
vn 0.816492 0.407824 -0.408682
vn -0.666670 -0.332609 0.667025
vn -0.577350 0.577967 0.576733
vn 0.666672 -0.666303 0.334048
vn -0.408253 -0.816927 -0.407380
vn 0.408248 -0.409121 -0.816060
vn 0.816492 0.407824 -0.408682
vn -0.666670 -0.332609 0.667026
vn -0.577351 -0.578734 -0.575962
vn -0.577350 -0.575963 0.578735
vn 0.333333 -0.665064 0.668265
vn 0.816496 0.409226 0.407268
vn 0.333333 -0.665064 0.668265
vn 0.333333 0.665064 -0.668265
vn -0.577347 0.578731 0.575969
vn -0.577347 0.578731 0.575969
vn -0.577350 -0.575963 0.578735
vn 0.333333 -0.665064 0.668265
vn 0.816492 -0.409225 -0.407279
vn 0.333333 -0.665064 0.668265
vn -0.577347 0.578731 0.575969
vn -0.577347 0.578732 0.575969
vn 0.816492 0.407824 -0.408682
vn -0.408253 -0.816927 -0.407381
vn 0.333334 0.667379 0.665953
vn -0.666667 -0.332619 0.667023
vn 0.816492 0.407823 -0.408682
vn 0.408244 -0.409135 -0.816055
vn -0.577352 0.576731 -0.577967
vn -0.408249 -0.816932 -0.407375
vn -0.666667 -0.332619 0.667023
vn 0.333330 0.667386 0.665948
vn -0.408253 -0.816927 -0.407381
vn 0.333330 0.667386 0.665948
vn -0.577350 0.577967 0.576733
vn 0.816492 0.407824 -0.408682
vn -0.666670 -0.332609 0.667025
vn -0.577347 0.576739 -0.577963
vn 0.666672 -0.666303 0.334048
vn -0.666670 -0.332609 0.667026
vn 0.816492 0.407824 -0.408682
vn -0.408253 -0.816927 -0.407380
vn -0.666670 -0.332609 0.667026
vn -0.577350 0.577967 0.576733
vt 1.000000 0.000000
vt 0.000006 0.580651
vt 1.000000 0.580052
vt 0.000000 0.000003
vt 0.999999 0.000000
vt 0.000008 0.580652
f 1/1/1 2/2/2 3/3/3
f 4/3/4 5/4/5 6/5/6
f 6/5/6 7/4/7 1/1/1
f 5/4/5 2/2/2 7/4/7
f 2/2/2 4/3/4 3/3/3
f 1/1/8 4/3/4 6/5/6
f 8/1/1 9/2/9 10/3/3
f 11/3/10 12/4/11 13/5/12
f 13/5/12 14/4/13 8/1/1
f 12/4/11 9/2/9 14/4/13
f 9/2/9 11/3/10 10/3/3
f 8/1/8 11/3/10 13/5/14
f 15/1/15 16/2/16 17/3/17
f 18/5/18 19/6/19 20/4/20
f 18/5/18 21/4/21 15/1/15
f 20/4/20 16/2/16 21/4/21
f 16/2/16 22/3/22 17/3/17
f 15/1/15 22/3/22 18/5/18
f 23/1/23 24/2/24 25/3/25
f 26/5/26 27/6/27 28/4/28
f 26/5/26 29/4/29 23/1/23
f 28/4/28 24/2/24 29/4/29
f 24/2/24 30/3/30 25/3/25
f 23/1/31 30/3/30 26/5/26
f 31/1/32 32/2/33 33/3/34
f 34/5/35 35/6/36 36/4/37
f 34/5/35 37/4/38 31/1/32
f 36/4/37 32/2/33 37/4/38
f 32/2/33 38/3/22 33/3/34
f 31/1/32 38/3/22 34/5/35
f 39/1/32 40/2/33 41/3/34
f 42/5/18 43/6/36 44/4/20
f 42/5/18 45/4/39 39/1/32
f 44/4/20 40/2/33 45/4/39
f 40/2/33 46/3/40 41/3/34
f 39/1/32 46/3/40 42/5/18
f 47/1/32 48/2/33 49/3/41
f 50/5/42 51/6/43 52/4/44
f 50/5/42 53/4/45 47/1/32
f 52/4/44 48/2/33 53/4/45
f 48/2/33 54/3/46 49/3/41
f 47/1/32 54/3/46 50/5/42
f 1/1/1 7/4/7 2/2/47
f 4/3/4 55/6/48 5/4/49
f 6/5/50 5/4/5 7/4/7
f 5/4/51 55/6/48 2/2/2
f 2/2/2 55/6/48 4/3/4
f 1/1/52 3/3/3 4/3/53
f 8/1/1 14/4/13 9/2/9
f 11/3/54 56/6/55 12/4/56
f 13/5/12 12/4/11 14/4/57
f 12/4/58 56/6/55 9/2/9
f 9/2/9 56/6/55 11/3/59
f 8/1/52 10/3/3 11/3/60
f 15/1/15 21/4/61 16/2/16
f 18/5/18 22/3/22 19/6/19
f 18/5/18 20/4/20 21/4/21
f 20/4/20 19/6/19 16/2/16
f 16/2/16 19/6/62 22/3/22
f 15/1/15 17/3/17 22/3/22
f 23/1/63 29/4/29 24/2/24
f 26/5/26 30/3/64 27/6/27
f 26/5/26 28/4/28 29/4/65
f 28/4/66 27/6/27 24/2/24
f 24/2/67 27/6/68 30/3/30
f 23/1/23 25/3/25 30/3/69
f 31/1/70 37/4/45 32/2/33
f 34/5/35 38/3/22 35/6/36
f 34/5/35 36/4/37 37/4/38
f 36/4/37 35/6/36 32/2/33
f 32/2/33 35/6/71 38/3/22
f 31/1/72 33/3/73 38/3/22
f 39/1/70 45/4/74 40/2/33
f 42/5/18 46/3/75 43/6/36
f 42/5/18 44/4/20 45/4/39
f 44/4/20 43/6/36 40/2/33
f 40/2/33 43/6/71 46/3/22
f 39/1/72 41/3/73 46/3/22
f 47/1/70 53/4/45 48/2/76
f 50/5/77 54/3/78 51/6/43
f 50/5/42 52/4/44 53/4/79
f 52/4/44 51/6/43 48/2/33
f 48/2/33 51/6/80 54/3/81
f 47/1/72 49/3/82 54/3/81
