#
#
#

mtllib chips.mtl


#
#  Mesh
#
g  Mesh


#
#  Mesh_lays
#
usemtl  Mesh_lays

v -1.201106 0.878015 -2.112236
v -0.838521 0.872121 -2.235370
v -0.777721 0.321077 -1.009981
v -0.984256 0.159458 1.692280
v -1.259542 0.153839 1.185574
v -0.750539 0.032118 1.314811
v -1.299666 0.350032 0.204859
v -1.229910 0.539039 -1.098858
v -1.334108 0.266031 0.693357
v -1.341165 0.678479 -1.047553
v 1.054580 0.043997 0.709178
v 1.225851 0.181948 0.344846
v 1.279891 0.178252 1.145815
v 1.242840 0.718704 -1.665003
v 0.879528 0.435947 -1.249556
v 1.267221 0.974636 -2.279830
v 0.764786 0.865627 -2.239876
v -0.109751 0.485241 -1.556898
v -0.642295 -0.056944 0.378257
v -0.153713 -0.058070 1.109693
v 1.237055 0.550528 -1.124710
v 1.344233 0.695613 -1.094107
v 1.298780 0.482770 -0.249871
v 0.846235 0.081447 -0.150287
v 0.171393 0.122374 -0.689755
v 0.642002 -0.057088 0.379682
v 0.138168 -0.088830 0.041285
v 0.560756 -0.033949 1.080953
v 1.189725 0.159215 1.582850
v 0.889743 0.165413 1.692588
v 1.039241 0.124937 1.487890
v 1.283923 0.185170 1.403972
v -1.059714 0.152016 -0.063745
v -1.053261 0.043825 0.703184
v -0.635279 0.010802 -0.103109
v -1.303756 0.619806 0.009883
v -1.423113 0.168604 1.758249
v -1.431195 0.248082 1.410500
v -1.343641 0.302379 0.965990
v -1.416022 0.978233 -2.320627
v -0.999845 0.979657 -2.303664
v -1.393078 0.867656 -1.711552
v -1.270069 0.702837 -1.564147
v -1.324731 0.862130 -1.286604
v 1.365480 0.847731 -1.595971
v 1.306992 0.891533 -1.334537
v 1.338433 0.363679 0.460743
v 1.250564 0.993738 -1.668861
v 1.421311 0.998391 -2.370168
v 0.800522 0.961742 0.247483
v 1.045440 1.058022 -1.388064
v 0.669411 1.115889 -0.829233
v 0.586390 0.895746 0.641081
v 1.109316 0.782287 0.464315
v 1.389984 0.283087 1.173584
v 1.322521 0.283455 0.818838
v 1.309933 0.459688 0.862275
v -1.081767 0.472583 1.220874
v -0.818733 0.281411 1.641195
v -0.523504 0.569263 1.310745
v 1.228850 0.917958 -0.868996
v -0.411537 1.138535 -0.936471
v -0.246956 1.158013 -1.567196
v -0.929630 1.084221 -1.118285
v -1.229533 0.927763 -0.933675
v -1.246464 0.987103 -1.568444
v 1.418111 0.164089 1.717283
v 1.220313 0.488489 1.127656
v 1.053063 0.192096 1.701364
v 0.074308 1.029521 0.336934
v 1.308035 0.801587 -0.825860
v -0.211585 1.135392 -0.515295
v 0.846627 1.088050 -1.904234
v 0.996892 1.043772 -2.220293
v -0.711090 0.842220 0.731655
v -0.558554 1.011419 0.254007
v -1.067581 0.809380 0.466690
v 0.436428 0.666611 1.175629
v -0.001762 0.293700 1.655592
v -1.250910 0.673496 0.436450
v -1.245719 0.448142 1.160853
v -1.306380 0.465120 0.880548
v -1.134648 0.165834 1.774341
v -1.010374 0.208431 1.687119
v 0.333387 1.146578 -1.653567
v 0.724589 1.109706 -1.228253
v 0.115508 1.152754 -0.982238
v -0.699544 1.082297 -2.204384
v 0.956395 1.000777 -2.298962
v 1.291971 0.628813 0.421577
v -0.003189 0.165074 1.775723
v 0.921723 0.164410 1.776806
v 0.912206 1.010570 -2.404548
v -0.677282 1.012640 -2.405599
v -0.786856 1.001982 -2.298727
v 0.717960 0.099060 1.623670
vn -0.270739 -0.879032 -0.392433
vn -0.101476 -0.815929 -0.569176
vn -0.229463 -0.915848 -0.329499
vn -0.064772 -0.962570 0.263180
vn -0.453599 -0.891059 -0.016159
vn -0.147986 -0.972774 0.178355
vn -0.998677 -0.033149 -0.039309
vn -0.766859 -0.614976 -0.183661
vn -0.957648 -0.282087 -0.057771
vn -0.969182 -0.236394 -0.069309
vn 0.363145 -0.931727 -0.003275
vn 0.741315 -0.661959 -0.110737
vn 0.669952 -0.741159 -0.042983
vn 0.566173 -0.779045 -0.269327
vn 0.222454 -0.910333 -0.349010
vn 0.196048 -0.888981 -0.413857
vn 0.051092 -0.759947 -0.647973
vn -0.004309 -0.909358 -0.415992
vn -0.184404 -0.982061 -0.039395
vn -0.021077 -0.989764 0.141152
vn 0.675299 -0.712759 -0.189593
vn 0.995364 -0.095944 0.006711
vn 0.977861 -0.204426 -0.044694
vn 0.308995 -0.926447 -0.214985
vn 0.030549 -0.945740 -0.323485
vn 0.187571 -0.980825 -0.052913
vn 0.030195 -0.993237 -0.112106
vn 0.117673 -0.986986 0.109599
vn 0.073427 -0.996845 0.030130
vn 0.039689 -0.979580 0.197101
vn 0.198545 -0.966599 0.162072
vn 0.364941 -0.930350 -0.035599
vn -0.452835 -0.873692 -0.177772
vn -0.411094 -0.911151 -0.028369
vn -0.185059 -0.956093 -0.227245
vn 0.030195 -0.993237 -0.112106
vn -0.957648 -0.282087 -0.057771
vn -0.972937 0.227915 0.038058
vn -0.629577 -0.772345 0.084364
vn -0.773501 0.608169 0.178401
vn -0.999670 -0.004926 -0.025190
vn -0.453599 -0.891059 -0.016159
vn -0.607244 0.616189 -0.501563
vn -0.028423 -0.825587 -0.563559
vn -0.969254 -0.245148 -0.021190
vn -0.714581 -0.672397 -0.193018
vn -0.959353 0.274287 0.066403
vn 0.971209 -0.227989 -0.069098
vn 0.785219 0.611244 0.099056
vn -0.453599 -0.891059 -0.016159
vn -0.411094 -0.911151 -0.028369
vn 0.992763 -0.116399 -0.029533
vn 0.566173 -0.779045 -0.269327
vn 0.400142 0.915542 0.040859
vn 0.439783 0.840219 -0.317211
vn 0.275671 0.946047 0.170297
vn 0.332021 0.942216 0.044615
vn 0.123842 0.990005 0.067482
vn 0.193489 0.917925 0.346374
vn 0.479832 0.846464 0.230782
vn 0.975561 -0.212225 -0.056925
vn 0.939669 -0.331539 -0.084286
vn 0.940202 0.335649 0.057967
vn -0.233483 0.877910 0.418042
vn -0.119812 0.764887 0.632924
vn -0.119485 0.869836 0.478652
vn 0.616743 0.780256 0.104059
vn -0.070867 0.997070 0.028790
vn -0.047145 0.998583 -0.024682
vn -0.243057 0.968149 0.060080
vn -0.674908 0.730183 0.106453
vn -0.603757 0.789893 0.107455
vn 0.839255 -0.297955 0.454834
vn 0.493907 0.807524 0.322429
vn 0.047460 0.847575 0.528549
vn 0.275671 0.946047 0.170297
vn 0.023025 0.968883 0.246444
vn 0.977861 -0.204426 -0.044694
vn 0.995364 -0.095944 0.006711
vn 0.946906 0.314232 0.068019
vn -0.040313 0.995797 0.082239
vn 0.157668 0.986897 -0.034296
vn 0.066516 0.976754 -0.203783
vn -0.163719 0.911779 0.376637
vn -0.170809 0.967473 0.186603
vn -0.469013 0.856940 0.213729
vn 0.275671 0.946047 0.170297
vn 0.066225 0.866634 0.494530
vn 0.000845 0.668483 0.743727
vn -0.785938 0.602307 0.139739
vn -0.170809 0.967473 0.186603
vn -0.500808 0.808888 0.308043
vn -0.957648 -0.282087 -0.057771
vn -0.892431 0.433712 0.124340
vn -0.099818 -0.163544 0.981473
vn -0.773501 0.608169 0.178401
vn -0.131748 0.791037 0.597414
vn 0.047460 0.847575 0.528549
vn 0.000845 0.668483 0.743727
vn 0.000845 0.668483 0.743727
vn -0.959353 0.274287 0.066403
vn -0.603757 0.789893 0.107455
vn 0.047652 0.996794 -0.064271
vn 0.118749 0.992570 -0.026515
vn 0.026869 0.999437 0.020119
vn 0.785219 0.611244 0.099056
vn -0.034660 0.948485 -0.314920
vn -0.006389 0.954556 -0.297962
vn -0.603757 0.789893 0.107455
vn -0.674908 0.730183 0.106453
vn 0.479832 0.846464 0.230782
vn 0.193489 0.917925 0.346374
vn 0.977861 -0.204426 -0.044694
vn 0.887013 0.451282 0.097737
vn -0.163719 0.911779 0.376637
vn 0.066516 0.976754 -0.203783
vn 0.047460 0.847575 0.528549
vn -0.001302 -0.180584 0.983559
vn 0.022776 -0.827858 0.560475
vn 0.439783 0.840219 -0.317211
vn 0.024697 0.189941 -0.981485
vn -0.059374 0.183673 -0.981193
vn 0.196048 -0.888981 -0.413857
vn -0.009441 0.974335 -0.224905
vn -0.184404 -0.982061 -0.039395
vn 0.030549 -0.945740 -0.323485
vn -0.714581 -0.672397 -0.193018
vn 0.063283 -0.932322 0.356049
vn -0.453599 -0.891059 -0.016159
vn -0.999670 -0.004926 -0.025190
vn -0.957648 -0.282087 -0.057771
vn -0.229463 -0.915848 -0.329499
vn 0.363145 -0.931727 -0.003275
vn 0.222454 -0.910333 -0.349010
vn 0.196048 -0.888981 -0.413857
vn -0.004309 -0.909358 -0.415992
vn -0.452835 -0.873692 -0.177772
vn -0.229463 -0.915848 -0.329499
vn 0.669952 -0.741159 -0.042983
vn 0.741315 -0.661959 -0.110737
vn 0.977861 -0.204426 -0.044694
vn 0.308995 -0.926447 -0.214985
vn 0.117673 -0.986986 0.109599
vn 0.187571 -0.980825 -0.052913
vn 0.363145 -0.931727 -0.003275
vn 0.117673 -0.986986 0.109599
vn 0.030195 -0.993237 -0.112106
vn 0.117673 -0.986986 0.109599
vn 0.198545 -0.966599 0.162072
vn -0.957648 -0.282087 -0.057771
vn -0.411094 -0.911151 -0.028369
vn -0.452835 -0.873692 -0.177772
vn -0.184404 -0.982061 -0.039395
vn -0.064772 -0.962570 0.263180
vn -0.453599 -0.891059 -0.016159
vn -0.453599 -0.891059 -0.016159
vn -0.969254 -0.245148 -0.021190
vn -0.714581 -0.672397 -0.193018
vn -0.969182 -0.236394 -0.069309
vn -0.714581 -0.672397 -0.193018
vn 0.030549 -0.945740 -0.323485
vn -0.229463 -0.915848 -0.329499
vn 0.222454 -0.910333 -0.349010
vn 0.675299 -0.712759 -0.189593
vn 0.971209 -0.227989 -0.069098
vn 0.063283 -0.932322 0.356049
vn -0.147986 -0.972774 0.178355
vn -0.021077 -0.989764 0.141152
vn 0.030195 -0.993237 -0.112106
vn 0.117673 -0.986986 0.109599
vn 0.308995 -0.926447 -0.214985
vn 0.939669 -0.331539 -0.084286
vn 0.741315 -0.661959 -0.110737
vn -0.070867 0.997070 0.028790
vn 0.940202 0.335649 0.057967
vn -0.119485 0.869836 0.478652
vn 0.995364 -0.095944 0.006711
vn 0.332021 0.942216 0.044615
vn -0.972937 0.227915 0.038058
vn -0.243057 0.968149 0.060080
vn -0.040313 0.995797 0.082239
vn -0.959353 0.274287 0.066403
vn -0.972937 0.227915 0.038058
vn 0.975561 -0.212225 -0.056925
vn 0.493907 0.807524 0.322429
vn 0.479832 0.846464 0.230782
vn 0.023025 0.968883 0.246444
vn 0.275671 0.946047 0.170297
vn -0.040313 0.995797 0.082239
vn 0.026869 0.999437 0.020119
vn 0.066225 0.866634 0.494530
vn -0.163719 0.911779 0.376637
vn 0.971209 -0.227989 -0.069098
vn 0.157668 0.986897 -0.034296
vn -0.243057 0.968149 0.060080
vn -0.047145 0.998583 -0.024682
vn 0.479832 0.846464 0.230782
vn 0.493907 0.807524 0.322429
vn 0.887013 0.451282 0.097737
vn 0.616743 0.780256 0.104059
vn 0.616743 0.780256 0.104059
vn 0.332021 0.942216 0.044615
vn 0.023025 0.968883 0.246444
vn 0.123842 0.990005 0.067482
vn -0.040313 0.995797 0.082239
vn 0.193489 0.917925 0.346374
vn -0.972937 0.227915 0.038058
vn -0.959353 0.274287 0.066403
vn -0.892431 0.433712 0.124340
vn -0.469013 0.856940 0.213729
vn -0.163719 0.911779 0.376637
vn -0.099818 -0.163544 0.981473
vn -0.131748 0.791037 0.597414
vn -0.999670 -0.004926 -0.025190
vn 0.047652 0.996794 -0.064271
vn -0.892431 0.433712 0.124340
vn 0.887013 0.451282 0.097737
vn -0.006389 0.954556 -0.297962
vn -0.059374 0.183673 -0.981193
vn 0.073427 -0.996845 0.030130
vn -0.001302 -0.180584 0.983559
vn -0.099818 -0.163544 0.981473
vn 0.196048 -0.888981 -0.413857
vn 0.118749 0.992570 -0.026515
vn 0.332021 0.942216 0.044615
vn 0.066516 0.976754 -0.203783
vn 0.047652 0.996794 -0.064271
vn -0.131748 0.791037 0.597414
vn 0.063283 -0.932322 0.356049
vn 0.039689 -0.979580 0.197101
vn 0.975561 -0.212225 -0.056925
vn 0.839255 -0.297955 0.454834
vn 0.364941 -0.930350 -0.035599
vn 0.364941 -0.930350 -0.035599
vn 0.047652 0.996794 -0.064271
vn -0.034660 0.948485 -0.314920
vn -0.047145 0.998583 -0.024682
vn 0.047652 0.996794 -0.064271
vn -0.047145 0.998583 -0.024682
vn 0.123842 0.990005 0.067482
vn 0.118749 0.992570 -0.026515
vn -0.131748 0.791037 0.597414
vn 0.198545 -0.966599 0.162072
vn 0.364941 -0.930350 -0.035599
vn 0.839255 -0.297955 0.454834
vt 0.942957 0.891728
vt 0.886997 0.935553
vt 0.862462 0.637636
vt 0.914999 0.021222
vt 0.960171 0.159829
vt 0.868979 0.138232
vt 0.975112 0.382395
vt 0.948016 0.649248
vt 0.978184 0.281245
vt 0.985030 0.664114
vt 0.593945 0.272591
vt 0.560593 0.349950
vt 0.535953 0.167768
vt 0.543679 0.797170
vt 0.621547 0.685547
vt 0.565050 0.923113
vt 0.632339 0.935670
vt 0.763501 0.758170
vt 0.842558 0.341443
vt 0.769901 0.203874
vt 0.554697 0.659482
vt 0.517714 0.675911
vt 0.525117 0.483228
vt 0.626653 0.448994
vt 0.726257 0.565753
vt 0.661546 0.342340
vt 0.734164 0.412867
vt 0.664554 0.187263
vt 0.548072 0.067005
vt 0.599862 0.032578
vt 0.576569 0.086457
vt 0.535418 0.105093
vt 0.909501 0.423800
vt 0.909760 0.270710
vt 0.844597 0.440696
vt 0.998427 0.440085
vt 0.990192 0.018518
vt 0.996041 0.124181
vt 0.988914 0.202633
vt 0.987566 0.978854
vt 0.921070 0.967106
vt 0.996426 0.826899
vt 0.966960 0.773654
vt 0.996559 0.727833
vt 0.514625 0.804018
vt 0.509472 0.739167
vt 0.517056 0.336878
vt 0.458978 0.817844
vt 0.492831 0.821414
vt 0.490298 0.994077
vt 0.372606 0.410409
vt 0.409836 0.745879
vt 0.348828 0.626643
vt 0.334458 0.326882
vt 0.422576 0.359362
vt 0.501111 0.159548
vt 0.500801 0.246271
vt 0.478500 0.249093
vt 0.073111 0.162600
vt 0.112388 0.054288
vt 0.175606 0.188552
vt 0.447329 0.634565
vt 0.477183 0.741404
vt 0.189017 0.643804
vt 0.210400 0.784150
vt 0.100213 0.688680
vt 0.016105 0.723823
vt 0.051366 0.635961
vt 0.035406 0.788539
vt 0.495297 0.021032
vt 0.454412 0.201044
vt 0.407078 0.079454
vt 0.257740 0.402864
vt 0.496221 0.493320
vt 0.495000 0.690645
vt 0.474981 0.625242
vt 0.217905 0.577015
vt 0.385755 0.870524
vt 0.412500 0.928018
vt 0.149634 0.294654
vt 0.166930 0.404027
vt 0.084291 0.355460
vt 0.315914 0.193422
vt 0.251683 0.059553
vt 0.018087 0.431653
vt 0.047007 0.348706
vt 0.038638 0.176981
vt -0.001150 0.268094
vt 0.021244 0.238945
vt 0.004820 0.006507
vt 0.063870 0.009298
vt 0.001801 0.117566
vt 0.002138 0.177233
vt 0.084887 0.030795
vt -0.000450 0.825993
vt 0.008731 0.984303
vt 0.301838 0.786854
vt 0.358527 0.719045
vt 0.266250 0.651315
vt 0.138671 0.931785
vt 0.408468 0.977988
vt 0.463759 0.353072
vt 0.251892 0.006931
vt 0.410406 0.004700
vt 0.403543 0.995370
vt 0.867129 0.994593
vt 0.598737 0.996382
vt 0.594246 0.009569
vt 0.751313 0.010188
vt 0.515677 0.983450
vt 0.113177 0.973679
vt 0.519575 0.243997
vt 0.507373 0.160130
vt 0.633285 0.061987
vt 0.998655 0.236960
vt 0.937571 0.012398
vt 0.000350 0.643187
vt 0.130812 0.996937
vt 0.512635 0.030205
f 1/1/1 2/2/2 3/3/3
f 4/4/4 5/5/5 6/6/6
f 7/7/7 8/8/8 9/9/9
f 7/7/7 10/10/10 8/8/8
f 11/11/11 12/12/12 13/13/13
f 14/14/14 15/15/15 16/16/16
f 2/2/2 17/17/17 18/18/18
f 6/6/6 19/19/19 20/20/20
f 21/21/21 22/22/22 23/23/23
f 24/24/24 21/21/21 12/12/12
f 25/25/25 15/15/15 24/24/24
f 26/26/26 27/27/27 24/24/24
f 11/11/11 24/24/24 12/12/12
f 20/20/20 27/27/27 28/28/28
f 29/29/29 30/30/30 31/31/31
f 28/28/28 11/11/11 31/31/31
f 11/11/11 13/13/13 32/32/32
f 9/9/9 33/33/33 34/34/34
f 35/35/35 27/27/36 19/19/19
f 33/33/33 35/35/35 19/19/19
f 5/5/5 9/9/37 34/34/34
f 9/9/9 36/36/38 7/7/7
f 37/37/39 38/38/40 5/5/5
f 38/38/40 39/39/41 5/5/42
f 40/40/43 41/41/44 1/1/1
f 42/42/45 1/1/1 43/43/46
f 44/44/47 43/43/46 10/10/10
f 21/21/21 14/14/14 45/45/48
f 22/22/22 45/45/48 46/46/49
f 17/17/17 41/41/44 16/16/16
f 5/5/50 34/34/51 6/6/6
f 35/35/35 3/3/3 25/25/25
f 12/12/12 23/23/23 47/47/52
f 14/14/53 16/16/16 45/45/48
f 48/48/54 45/49/48 49/50/55
f 50/51/56 51/52/57 52/53/58
f 53/54/59 54/55/60 50/51/56
f 55/56/61 56/57/62 57/58/63
f 58/59/64 59/60/65 60/61/66
f 61/62/67 46/63/49 51/52/57
f 62/64/68 63/65/69 64/66/70
f 44/67/47 65/68/71 66/69/72
f 67/70/73 68/71/74 69/72/75
f 50/51/76 52/53/58 70/73/77
f 23/74/78 22/75/79 71/76/80
f 64/66/70 72/77/81 62/64/68
f 73/78/82 48/48/54 74/79/83
f 75/80/84 76/81/85 77/82/86
f 76/81/85 70/73/77 72/77/81
f 54/55/60 61/62/67 50/51/87
f 70/73/77 78/83/88 53/54/59
f 69/72/75 78/83/88 79/84/89
f 79/84/89 78/83/88 60/61/66
f 69/72/75 68/71/74 78/83/88
f 36/85/38 80/86/90 65/68/71
f 75/80/84 70/73/77 76/81/85
f 77/82/86 76/81/91 64/66/70
f 81/87/92 60/61/66 75/80/84
f 9/88/93 82/89/94 36/85/38
f 37/90/39 83/91/95 38/92/96
f 39/93/41 81/87/92 82/89/94
f 84/94/97 69/72/98 79/84/99
f 59/60/65 79/84/100 60/61/66
f 44/67/101 66/69/72 42/95/45
f 66/69/102 40/96/43 42/95/45
f 85/97/103 86/98/104 73/78/82
f 87/99/105 86/98/104 85/97/103
f 51/52/57 46/63/106 48/48/54
f 88/100/107 74/79/83 89/101/108
f 65/68/71 64/66/70 66/69/109
f 80/86/90 77/82/86 65/68/110
f 68/71/74 54/55/111 53/54/112
f 47/47/52 23/74/113 90/102/114
f 56/57/62 47/47/52 57/58/63
f 78/83/88 70/73/77 75/80/115
f 74/79/116 48/48/54 49/50/55
f 69/72/117 91/103/118 92/104/119
f 89/101/108 49/50/120 93/105/121
f 41/41/44 94/106/122 93/107/121
f 30/30/30 92/108/119 91/109/118
f 30/30/30 29/29/29 92/108/119
f 69/72/98 84/94/97 83/91/95
f 49/110/120 16/16/123 93/107/121
f 95/111/124 89/101/108 93/105/121
f 45/45/48 16/16/123 49/110/120
f 20/20/20 19/19/125 27/27/36
f 13/13/13 56/112/62 55/113/61
f 1/1/1 41/41/44 2/2/2
f 8/8/8 43/43/46 3/3/3
f 25/25/126 18/18/18 15/15/15
f 43/43/127 1/1/1 3/3/3
f 96/114/128 4/4/4 6/6/6
f 5/5/129 39/39/130 9/9/131
f 33/33/33 8/8/8 3/3/132
f 11/11/133 26/26/26 24/24/24
f 15/15/134 17/17/17 16/16/135
f 3/3/3 2/2/2 18/18/136
f 6/6/6 34/34/51 19/19/19
f 35/35/35 33/33/137 3/3/138
f 13/13/139 12/12/12 56/112/62
f 12/12/140 21/21/21 23/23/141
f 24/24/142 15/15/134 21/21/21
f 28/28/143 26/26/144 11/11/145
f 28/28/146 27/27/147 26/26/26
f 96/114/128 28/28/148 31/31/149
f 7/7/7 36/36/38 10/10/10
f 9/9/150 8/8/8 33/33/33
f 34/34/151 33/33/152 19/19/153
f 39/39/41 82/115/94 9/9/150
f 4/4/154 83/116/95 5/5/155
f 83/116/95 37/37/39 5/5/156
f 30/30/30 4/4/154 96/114/128
f 42/42/45 40/40/43 1/1/1
f 44/44/101 42/42/157 43/43/158
f 10/10/159 43/43/160 8/8/8
f 25/25/161 3/3/162 18/18/18
f 15/15/134 18/18/18 17/17/17
f 21/21/21 15/15/163 14/14/14
f 22/22/22 21/21/164 45/45/165
f 96/114/166 6/6/167 20/20/168
f 27/27/169 35/35/35 25/25/25
f 96/114/166 20/20/20 28/28/170
f 27/27/147 25/25/25 24/24/171
f 56/112/172 12/12/173 47/47/52
f 2/2/2 41/41/44 17/17/17
f 62/64/174 72/77/81 87/99/105
f 57/58/63 47/47/52 90/102/114
f 90/102/114 23/74/23 71/76/80
f 68/71/74 55/56/61 57/58/175
f 65/68/71 77/82/86 64/66/70
f 81/87/92 58/59/64 60/61/176
f 40/96/43 88/100/107 95/111/124
f 46/63/49 71/76/80 22/75/177
f 86/98/104 52/53/58 51/52/178
f 63/65/69 62/64/174 87/99/105
f 36/85/179 82/89/94 80/86/90
f 64/66/180 76/81/85 72/77/181
f 44/67/182 36/85/183 65/68/71
f 67/70/73 55/56/184 68/71/185
f 54/55/186 90/102/114 61/62/67
f 70/73/187 53/54/112 50/51/188
f 72/77/189 52/53/58 87/99/190
f 60/61/66 78/83/191 75/80/192
f 48/48/54 46/63/49 45/49/193
f 73/78/194 86/98/104 48/48/54
f 64/66/195 63/65/196 88/100/107
f 54/55/197 68/71/198 90/102/114
f 90/102/199 71/76/80 61/62/200
f 50/51/56 61/62/201 51/52/202
f 70/73/203 52/53/204 72/77/205
f 78/83/191 68/71/185 53/54/206
f 10/117/10 36/85/207 44/67/208
f 82/89/209 81/87/92 77/82/86
f 77/82/210 81/87/92 75/80/211
f 38/92/96 83/91/212 84/94/213
f 39/93/214 38/92/96 81/87/92
f 59/60/65 84/94/97 79/84/89
f 61/62/67 71/76/80 46/63/106
f 95/111/124 88/100/107 89/101/108
f 88/100/107 85/97/215 74/79/83
f 66/69/72 64/66/195 40/96/43
f 64/66/180 88/100/107 40/96/43
f 58/59/64 84/94/213 59/60/65
f 82/89/216 77/82/86 80/86/90
f 90/102/217 68/71/74 57/58/63
f 89/101/218 74/79/116 49/50/55
f 94/118/122 95/111/124 93/105/121
f 40/96/43 95/111/124 94/118/122
f 67/70/73 69/72/98 92/104/119
f 94/106/219 41/41/44 40/40/43
f 83/116/95 30/30/30 91/109/118
f 92/108/119 29/29/220 67/119/73
f 4/4/154 30/30/30 83/116/95
f 91/103/221 69/72/98 83/91/222
f 16/16/223 41/41/44 93/107/121
f 86/98/224 51/52/225 48/48/54
f 73/78/82 74/79/226 85/97/227
f 81/87/92 84/94/228 58/59/64
f 96/114/229 31/31/149 30/30/230
f 55/113/231 67/119/232 32/32/32
f 13/13/13 55/113/61 32/32/233
f 11/11/11 32/32/234 31/31/149
f 85/97/235 88/100/236 63/65/237
f 85/97/238 63/65/239 87/99/190
f 52/53/240 86/98/241 87/99/190
f 81/87/92 38/92/96 84/94/242
f 32/32/32 29/29/220 31/31/243
f 29/29/220 32/32/244 67/119/245
