#
#
#

mtllib stall.mtl


#
#  Mesh
#
g  Mesh


#
#  Mesh_Material
#
usemtl  Mesh_Material

v 2.487945 0.056489 -0.651047
v -2.487945 0.056488 -0.651047
v -2.487945 1.487511 -0.651047
v 2.487946 1.487511 -0.651047
v 2.487944 0.056488 0.651047
v 2.487945 1.487511 0.651047
v -2.487944 1.487511 0.651047
v -2.487947 0.056489 0.651047
v 2.487945 1.417676 0.952075
v -2.487945 1.417676 0.952075
v -2.487945 1.417676 -0.952076
v 2.487946 1.417676 -0.952075
v 2.487944 1.544186 0.952076
v 2.487945 1.544186 -0.952075
v -2.487944 1.544186 -0.952076
v -2.487947 1.544186 0.952075
v -2.436745 5.848060 1.000000
v -2.436745 -0.001089 1.000000
v -2.436745 -0.001089 -1.000000
v -2.436745 5.848061 -1.000000
v -2.563255 5.848059 1.000000
v -2.563255 5.848060 -1.000000
v -2.563255 -0.001088 -1.000000
v -2.563255 -0.001091 0.999999
v 2.436746 5.848059 -1.000000
v 2.436745 -0.001089 -1.000000
v 2.436745 -0.001089 1.000000
v 2.436746 5.848061 1.000000
v 2.563255 5.848058 -1.000000
v 2.563255 5.848060 1.000000
v 2.563255 -0.001088 1.000001
v 2.563255 -0.001091 -0.999999
v 2.487945 4.117550 0.825588
v -2.487945 4.117549 0.825588
v -2.487945 5.573208 0.825588
v 2.487946 5.573207 0.825588
v 2.487944 4.117549 0.952098
v 2.487945 5.573208 0.952098
v -2.487944 5.573208 0.952098
v -2.487947 4.117550 0.952098
vn 0.666668 -0.666665 0.333334
vn -0.666666 -0.333338 0.666665
vn -0.408249 -0.816496 -0.408249
vn 0.408249 -0.408246 -0.816498
vn 0.333333 0.666667 0.666667
vn 0.816495 0.408254 -0.408247
vn -0.577351 0.577349 -0.577351
vn -0.577354 0.577345 0.577353
vn -0.666666 -0.333338 0.666665
vn 0.333333 0.666667 0.666667
vn 0.816495 0.408254 -0.408247
vn 0.816495 0.408254 -0.408247
vt 1.000000 0.000000
vt 0.000000 0.000003
vt 0.000006 0.580651
vt 1.000000 0.580052
vt 0.999999 0.000000
vt 0.000008 0.580652
f 9/1/1 10/2/2 11/3/3
f 9/1/1 11/3/3 12/4/4
f 13/5/5 14/4/6 15/6/7
f 13/5/5 15/6/7 16/2/8
f 9/1/1 13/5/5 10/2/2
f 13/5/5 16/2/8 10/2/2
f 10/2/2 16/2/8 15/6/7
f 10/2/9 15/6/7 11/3/3
f 11/3/3 15/6/7 12/4/4
f 15/6/7 14/4/6 12/4/4
f 13/5/10 9/1/1 14/4/11
f 9/1/1 12/4/4 14/4/12

#
#  Mesh_Material.002
#
usemtl  Mesh_Material.002

v 2.487945 0.056489 -0.651047
v -2.487945 0.056488 -0.651047
v -2.487945 1.487511 -0.651047
v 2.487946 1.487511 -0.651047
v 2.487944 0.056488 0.651047
v 2.487945 1.487511 0.651047
v -2.487944 1.487511 0.651047
v -2.487947 0.056489 0.651047
v 2.487945 1.417676 0.952075
v -2.487945 1.417676 0.952075
v -2.487945 1.417676 -0.952076
v 2.487946 1.417676 -0.952075
v 2.487944 1.544186 0.952076
v 2.487945 1.544186 -0.952075
v -2.487944 1.544186 -0.952076
v -2.487947 1.544186 0.952075
v -2.436745 5.848060 1.000000
v -2.436745 -0.001089 1.000000
v -2.436745 -0.001089 -1.000000
v -2.436745 5.848061 -1.000000
v -2.563255 5.848059 1.000000
v -2.563255 5.848060 -1.000000
v -2.563255 -0.001088 -1.000000
v -2.563255 -0.001091 0.999999
v 2.436746 5.848059 -1.000000
v 2.436745 -0.001089 -1.000000
v 2.436745 -0.001089 1.000000
v 2.436746 5.848061 1.000000
v 2.563255 5.848058 -1.000000
v 2.563255 5.848060 1.000000
v 2.563255 -0.001088 1.000001
v 2.563255 -0.001091 -0.999999
v 2.487945 4.117550 0.825588
v -2.487945 4.117549 0.825588
v -2.487945 5.573208 0.825588
v 2.487946 5.573207 0.825588
v 2.487944 4.117549 0.952098
v 2.487945 5.573208 0.952098
v -2.487944 5.573208 0.952098
v -2.487947 4.117550 0.952098
vn 0.816495 0.408249 0.408249
vn 0.408251 -0.408248 0.816495
vn 0.666668 -0.666665 -0.333333
vn 0.333329 0.666668 -0.666668
vn -0.577355 0.577348 0.577348
vn -0.577353 0.577349 -0.577349
vn -0.666668 -0.333333 -0.666666
vn -0.408248 -0.816497 0.408248
vn 0.816496 0.408249 0.408250
vt 1.000000 0.000000
vt 0.000000 0.000003
vt 0.000006 0.580651
vt 1.000000 0.580052
vt 0.999999 0.000000
vt 0.000008 0.580652
f 57/7/13 58/8/14 59/9/15
f 57/7/13 59/9/15 60/10/16
f 61/11/17 62/10/18 63/12/19
f 61/11/17 63/12/19 64/8/20
f 57/7/13 61/11/17 58/8/14
f 61/11/17 64/8/20 58/8/14
f 58/8/14 64/8/20 59/9/15
f 64/8/20 63/12/19 59/9/15
f 59/9/15 63/12/19 60/10/16
f 63/12/19 62/10/18 60/10/16
f 61/11/17 57/7/21 60/10/16
f 61/11/17 60/10/16 62/10/18

#
#  Mesh_Material.003
#
usemtl  Mesh_Material.003

v 2.487945 0.056489 -0.651047
v -2.487945 0.056488 -0.651047
v -2.487945 1.487511 -0.651047
v 2.487946 1.487511 -0.651047
v 2.487944 0.056488 0.651047
v 2.487945 1.487511 0.651047
v -2.487944 1.487511 0.651047
v -2.487947 0.056489 0.651047
v 2.487945 1.417676 0.952075
v -2.487945 1.417676 0.952075
v -2.487945 1.417676 -0.952076
v 2.487946 1.417676 -0.952075
v 2.487944 1.544186 0.952076
v 2.487945 1.544186 -0.952075
v -2.487944 1.544186 -0.952076
v -2.487947 1.544186 0.952075
v -2.436745 5.848060 1.000000
v -2.436745 -0.001089 1.000000
v -2.436745 -0.001089 -1.000000
v -2.436745 5.848061 -1.000000
v -2.563255 5.848059 1.000000
v -2.563255 5.848060 -1.000000
v -2.563255 -0.001088 -1.000000
v -2.563255 -0.001091 0.999999
v 2.436746 5.848059 -1.000000
v 2.436745 -0.001089 -1.000000
v 2.436745 -0.001089 1.000000
v 2.436746 5.848061 1.000000
v 2.563255 5.848058 -1.000000
v 2.563255 5.848060 1.000000
v 2.563255 -0.001088 1.000001
v 2.563255 -0.001091 -0.999999
v 2.487945 4.117550 0.825588
v -2.487945 4.117549 0.825588
v -2.487945 5.573208 0.825588
v 2.487946 5.573207 0.825588
v 2.487944 4.117549 0.952098
v 2.487945 5.573208 0.952098
v -2.487944 5.573208 0.952098
v -2.487947 4.117550 0.952098
vn -0.816495 0.408249 -0.408250
vn -0.408251 -0.408248 -0.816495
vn -0.666669 -0.666664 0.333333
vn -0.333331 0.666668 0.666667
vn 0.577355 0.577348 -0.577348
vn 0.577353 0.577349 0.577348
vn 0.666666 -0.333333 0.666667
vn 0.408248 -0.816497 -0.408248
vn 0.666666 -0.333333 0.666667
vn -0.816495 0.408249 -0.408250
vn -0.333331 0.666668 0.666667
vt 1.000000 0.000000
vt 0.000000 0.000003
vt 0.000006 0.580651
vt 1.000000 0.580052
vt 0.999999 0.000000
vt 0.000008 0.580652
f 105/13/22 106/14/23 107/15/24
f 105/13/22 107/15/24 108/16/25
f 109/17/26 110/16/27 111/18/28
f 109/17/26 111/18/28 112/14/29
f 105/13/22 109/17/26 106/14/23
f 109/17/26 112/14/29 106/14/23
f 106/14/23 112/14/29 107/15/24
f 112/14/29 111/18/28 107/15/24
f 107/15/24 111/18/28 108/16/25
f 111/18/30 110/16/27 108/16/25
f 109/17/26 105/13/31 108/16/32
f 109/17/26 108/16/32 110/16/27

#
#  Mesh_Material.004
#
usemtl  Mesh_Material.004

v 2.487945 0.056489 -0.651047
v -2.487945 0.056488 -0.651047
v -2.487945 1.487511 -0.651047
v 2.487946 1.487511 -0.651047
v 2.487944 0.056488 0.651047
v 2.487945 1.487511 0.651047
v -2.487944 1.487511 0.651047
v -2.487947 0.056489 0.651047
v 2.487945 1.417676 0.952075
v -2.487945 1.417676 0.952075
v -2.487945 1.417676 -0.952076
v 2.487946 1.417676 -0.952075
v 2.487944 1.544186 0.952076
v 2.487945 1.544186 -0.952075
v -2.487944 1.544186 -0.952076
v -2.487947 1.544186 0.952075
v -2.436745 5.848060 1.000000
v -2.436745 -0.001089 1.000000
v -2.436745 -0.001089 -1.000000
v -2.436745 5.848061 -1.000000
v -2.563255 5.848059 1.000000
v -2.563255 5.848060 -1.000000
v -2.563255 -0.001088 -1.000000
v -2.563255 -0.001091 0.999999
v 2.436746 5.848059 -1.000000
v 2.436745 -0.001089 -1.000000
v 2.436745 -0.001089 1.000000
v 2.436746 5.848061 1.000000
v 2.563255 5.848058 -1.000000
v 2.563255 5.848060 1.000000
v 2.563255 -0.001088 1.000001
v 2.563255 -0.001091 -0.999999
v 2.487945 4.117550 0.825588
v -2.487945 4.117549 0.825588
v -2.487945 5.573208 0.825588
v 2.487946 5.573207 0.825588
v 2.487944 4.117549 0.952098
v 2.487945 5.573208 0.952098
v -2.487944 5.573208 0.952098
v -2.487947 4.117550 0.952098
vn 0.666667 -0.333334 -0.666666
vn -0.408248 -0.816496 -0.408249
vn -0.666666 0.333334 -0.666667
vn 0.408248 0.816497 -0.408248
vn 0.333333 -0.666667 0.666667
vn 0.816497 0.408248 0.408249
vn -0.333333 0.666667 0.666667
vn -0.816497 -0.408248 0.408248
vn -0.816497 -0.408248 0.408248
vn -0.666666 0.333334 -0.666667
vn 0.408248 0.816497 -0.408248
vt 1.000000 0.000000
vt 0.000000 0.000003
vt 0.000006 0.580651
vt 1.000000 0.580052
vt 0.999999 0.000000
vt 0.000008 0.580652
f 121/19/33 122/20/34 123/21/35
f 121/19/33 123/21/35 124/22/36
f 125/23/37 126/22/38 127/24/39
f 125/23/37 127/24/39 128/20/40
f 121/19/33 125/23/37 122/20/34
f 125/23/37 128/20/40 122/20/34
f 122/20/34 128/20/41 123/21/35
f 128/20/41 127/24/39 123/21/35
f 123/21/42 127/24/39 124/22/36
f 127/24/39 126/22/38 124/22/36
f 125/23/37 121/19/33 126/22/38
f 121/19/33 124/22/43 126/22/38

#
#  Mesh_Material.005
#
usemtl  Mesh_Material.005

v 2.487945 0.056489 -0.651047
v -2.487945 0.056488 -0.651047
v -2.487945 1.487511 -0.651047
v 2.487946 1.487511 -0.651047
v 2.487944 0.056488 0.651047
v 2.487945 1.487511 0.651047
v -2.487944 1.487511 0.651047
v -2.487947 0.056489 0.651047
v 2.487945 1.417676 0.952075
v -2.487945 1.417676 0.952075
v -2.487945 1.417676 -0.952076
v 2.487946 1.417676 -0.952075
v 2.487944 1.544186 0.952076
v 2.487945 1.544186 -0.952075
v -2.487944 1.544186 -0.952076
v -2.487947 1.544186 0.952075
v -2.436745 5.848060 1.000000
v -2.436745 -0.001089 1.000000
v -2.436745 -0.001089 -1.000000
v -2.436745 5.848061 -1.000000
v -2.563255 5.848059 1.000000
v -2.563255 5.848060 -1.000000
v -2.563255 -0.001088 -1.000000
v -2.563255 -0.001091 0.999999
v 2.436746 5.848059 -1.000000
v 2.436745 -0.001089 -1.000000
v 2.436745 -0.001089 1.000000
v 2.436746 5.848061 1.000000
v 2.563255 5.848058 -1.000000
v 2.563255 5.848060 1.000000
v 2.563255 -0.001088 1.000001
v 2.563255 -0.001091 -0.999999
v 2.487945 4.117550 0.825588
v -2.487945 4.117549 0.825588
v -2.487945 5.573208 0.825588
v 2.487946 5.573207 0.825588
v 2.487944 4.117549 0.952098
v 2.487945 5.573208 0.952098
v -2.487944 5.573208 0.952098
v -2.487947 4.117550 0.952098
vn 0.666669 -0.333335 -0.666663
vn -0.408248 -0.816495 -0.408251
vn -0.666665 0.333333 -0.666669
vn 0.408248 0.816496 -0.408250
vn 0.333332 -0.666665 0.666669
vn 0.816495 0.408247 0.408252
vn -0.333333 0.666667 0.666666
vn -0.816497 -0.408248 0.408249
vn 0.333332 -0.666665 0.666670
vn -0.666665 0.333333 -0.666669
vn -0.666665 0.333333 -0.666669
vn -0.333333 0.666667 0.666666
vn 0.333332 -0.666664 0.666669
vn 0.666669 -0.333335 -0.666663
vn 0.408248 0.816496 -0.408250
vt 1.000000 0.000000
vt 0.000000 0.000003
vt 0.000006 0.580651
vt 1.000000 0.580052
vt 0.999999 0.000000
vt 0.000008 0.580652
f 193/25/44 194/26/45 195/27/46
f 193/25/44 195/27/46 196/28/47
f 197/29/48 198/28/49 199/30/50
f 197/29/48 199/30/50 200/26/51
f 193/25/44 197/29/48 194/26/45
f 197/29/52 200/26/51 194/26/45
f 194/26/45 200/26/51 195/27/46
f 200/26/51 199/30/50 195/27/53
f 195/27/54 199/30/55 196/28/47
f 199/30/55 198/28/49 196/28/47
f 197/29/56 193/25/57 198/28/49
f 193/25/57 196/28/58 198/28/49
